<mxfile host="app.diagrams.net" modified="2021-01-13T03:01:56.435Z" agent="5.0 (Macintosh; Intel Mac OS X 11_0_1) AppleWebKit/537.36 (KHTML, like Gecko) Chrome/87.0.4280.141 Safari/537.36" etag="CWxi9c_2hFAJZo7Psu2I" version="14.1.9" type="github">
  <diagram id="v_eEeRqzhrq8BgJMlzAe" name="Page-1">
    <mxGraphModel dx="946" dy="526" grid="1" gridSize="10" guides="1" tooltips="1" connect="1" arrows="1" fold="1" page="1" pageScale="1" pageWidth="850" pageHeight="1100" math="0" shadow="0">
      <root>
        <mxCell id="0" />
        <mxCell id="1" parent="0" />
        <mxCell id="LNvCaYjU8EssWkQsbk6R-1" value="Planner" style="html=1;" parent="1" vertex="1">
          <mxGeometry x="300" y="20" width="190" height="50" as="geometry" />
        </mxCell>
        <mxCell id="LNvCaYjU8EssWkQsbk6R-22" style="edgeStyle=orthogonalEdgeStyle;rounded=0;orthogonalLoop=1;jettySize=auto;html=1;entryX=0;entryY=0.5;entryDx=0;entryDy=0;" parent="1" source="LNvCaYjU8EssWkQsbk6R-2" target="LNvCaYjU8EssWkQsbk6R-6" edge="1">
          <mxGeometry relative="1" as="geometry" />
        </mxCell>
        <mxCell id="LNvCaYjU8EssWkQsbk6R-2" value="Add plan&amp;nbsp;" style="html=1;" parent="1" vertex="1">
          <mxGeometry x="110" y="430" width="100" height="50" as="geometry" />
        </mxCell>
        <mxCell id="LNvCaYjU8EssWkQsbk6R-23" style="edgeStyle=orthogonalEdgeStyle;rounded=0;orthogonalLoop=1;jettySize=auto;html=1;entryX=0;entryY=0.5;entryDx=0;entryDy=0;" parent="1" source="LNvCaYjU8EssWkQsbk6R-6" target="LNvCaYjU8EssWkQsbk6R-13" edge="1">
          <mxGeometry relative="1" as="geometry" />
        </mxCell>
        <mxCell id="LNvCaYjU8EssWkQsbk6R-27" style="edgeStyle=orthogonalEdgeStyle;rounded=0;orthogonalLoop=1;jettySize=auto;html=1;exitX=1;exitY=0.5;exitDx=0;exitDy=0;" parent="1" source="LNvCaYjU8EssWkQsbk6R-6" target="LNvCaYjU8EssWkQsbk6R-26" edge="1">
          <mxGeometry relative="1" as="geometry" />
        </mxCell>
        <mxCell id="LNvCaYjU8EssWkQsbk6R-6" value="Choose the type&lt;br&gt;&amp;nbsp;of plan" style="html=1;" parent="1" vertex="1">
          <mxGeometry x="230" y="430" width="110" height="50" as="geometry" />
        </mxCell>
        <mxCell id="LNvCaYjU8EssWkQsbk6R-29" style="edgeStyle=orthogonalEdgeStyle;rounded=0;orthogonalLoop=1;jettySize=auto;html=1;exitX=1;exitY=0.5;exitDx=0;exitDy=0;entryX=0;entryY=0.5;entryDx=0;entryDy=0;" parent="1" source="LNvCaYjU8EssWkQsbk6R-13" target="LNvCaYjU8EssWkQsbk6R-28" edge="1">
          <mxGeometry relative="1" as="geometry" />
        </mxCell>
        <mxCell id="LNvCaYjU8EssWkQsbk6R-13" value="Add Regular plan" style="html=1;" parent="1" vertex="1">
          <mxGeometry x="340" y="390" width="110" height="50" as="geometry" />
        </mxCell>
        <mxCell id="LNvCaYjU8EssWkQsbk6R-31" style="edgeStyle=orthogonalEdgeStyle;rounded=0;orthogonalLoop=1;jettySize=auto;html=1;exitX=1;exitY=0.5;exitDx=0;exitDy=0;entryX=0;entryY=0.5;entryDx=0;entryDy=0;" parent="1" source="LNvCaYjU8EssWkQsbk6R-26" target="LNvCaYjU8EssWkQsbk6R-30" edge="1">
          <mxGeometry relative="1" as="geometry" />
        </mxCell>
        <mxCell id="LNvCaYjU8EssWkQsbk6R-26" value="Add School&amp;nbsp;&lt;br&gt;assignment" style="html=1;" parent="1" vertex="1">
          <mxGeometry x="340" y="490" width="110" height="50" as="geometry" />
        </mxCell>
        <mxCell id="LNvCaYjU8EssWkQsbk6R-33" style="edgeStyle=orthogonalEdgeStyle;rounded=0;orthogonalLoop=1;jettySize=auto;html=1;exitX=1;exitY=0.5;exitDx=0;exitDy=0;entryX=0;entryY=0.5;entryDx=0;entryDy=0;" parent="1" source="LNvCaYjU8EssWkQsbk6R-28" target="LNvCaYjU8EssWkQsbk6R-32" edge="1">
          <mxGeometry relative="1" as="geometry" />
        </mxCell>
        <mxCell id="LNvCaYjU8EssWkQsbk6R-28" value="Enter the plan&lt;br&gt;(Name, Date, and etc)" style="html=1;" parent="1" vertex="1">
          <mxGeometry x="480" y="390" width="110" height="50" as="geometry" />
        </mxCell>
        <mxCell id="LNvCaYjU8EssWkQsbk6R-36" style="edgeStyle=orthogonalEdgeStyle;rounded=0;orthogonalLoop=1;jettySize=auto;html=1;entryX=0;entryY=0.5;entryDx=0;entryDy=0;" parent="1" source="LNvCaYjU8EssWkQsbk6R-30" target="LNvCaYjU8EssWkQsbk6R-35" edge="1">
          <mxGeometry relative="1" as="geometry" />
        </mxCell>
        <mxCell id="LNvCaYjU8EssWkQsbk6R-30" value="Enter the due date,&lt;br&gt;name, and etc" style="html=1;" parent="1" vertex="1">
          <mxGeometry x="480" y="490" width="110" height="50" as="geometry" />
        </mxCell>
        <mxCell id="LNvCaYjU8EssWkQsbk6R-39" style="edgeStyle=orthogonalEdgeStyle;rounded=0;orthogonalLoop=1;jettySize=auto;html=1;entryX=0.5;entryY=1;entryDx=0;entryDy=0;" parent="1" source="LNvCaYjU8EssWkQsbk6R-32" target="LNvCaYjU8EssWkQsbk6R-37" edge="1">
          <mxGeometry relative="1" as="geometry" />
        </mxCell>
        <mxCell id="LNvCaYjU8EssWkQsbk6R-32" value="Add it to Regular&amp;nbsp;&lt;br&gt;Plan list" style="html=1;" parent="1" vertex="1">
          <mxGeometry x="620" y="390" width="110" height="50" as="geometry" />
        </mxCell>
        <mxCell id="LNvCaYjU8EssWkQsbk6R-41" style="edgeStyle=orthogonalEdgeStyle;rounded=0;orthogonalLoop=1;jettySize=auto;html=1;exitX=0.5;exitY=1;exitDx=0;exitDy=0;entryX=0.5;entryY=0;entryDx=0;entryDy=0;" parent="1" source="LNvCaYjU8EssWkQsbk6R-35" target="LNvCaYjU8EssWkQsbk6R-44" edge="1">
          <mxGeometry relative="1" as="geometry">
            <mxPoint x="675" y="600" as="targetPoint" />
          </mxGeometry>
        </mxCell>
        <mxCell id="LNvCaYjU8EssWkQsbk6R-35" value="Add it to School&lt;br&gt;Assignmetn list" style="html=1;" parent="1" vertex="1">
          <mxGeometry x="620" y="490" width="110" height="50" as="geometry" />
        </mxCell>
        <mxCell id="LNvCaYjU8EssWkQsbk6R-80" style="edgeStyle=orthogonalEdgeStyle;rounded=0;orthogonalLoop=1;jettySize=auto;html=1;entryX=1;entryY=0.5;entryDx=0;entryDy=0;" parent="1" source="LNvCaYjU8EssWkQsbk6R-37" target="LNvCaYjU8EssWkQsbk6R-79" edge="1">
          <mxGeometry relative="1" as="geometry" />
        </mxCell>
        <mxCell id="LNvCaYjU8EssWkQsbk6R-83" style="edgeStyle=orthogonalEdgeStyle;rounded=0;orthogonalLoop=1;jettySize=auto;html=1;entryX=0.5;entryY=1;entryDx=0;entryDy=0;" parent="1" source="LNvCaYjU8EssWkQsbk6R-37" target="LNvCaYjU8EssWkQsbk6R-82" edge="1">
          <mxGeometry relative="1" as="geometry" />
        </mxCell>
        <mxCell id="LNvCaYjU8EssWkQsbk6R-37" value="More action?&lt;br&gt;YES for edit or remove&lt;br&gt;NO for go back to main page" style="html=1;" parent="1" vertex="1">
          <mxGeometry x="550" y="250" width="180" height="90" as="geometry" />
        </mxCell>
        <mxCell id="LNvCaYjU8EssWkQsbk6R-50" style="edgeStyle=orthogonalEdgeStyle;rounded=0;orthogonalLoop=1;jettySize=auto;html=1;entryX=0.5;entryY=1;entryDx=0;entryDy=0;" parent="1" source="LNvCaYjU8EssWkQsbk6R-44" target="LNvCaYjU8EssWkQsbk6R-45" edge="1">
          <mxGeometry relative="1" as="geometry" />
        </mxCell>
        <mxCell id="LNvCaYjU8EssWkQsbk6R-52" style="edgeStyle=orthogonalEdgeStyle;rounded=0;orthogonalLoop=1;jettySize=auto;html=1;entryX=0.5;entryY=0;entryDx=0;entryDy=0;" parent="1" source="LNvCaYjU8EssWkQsbk6R-44" target="LNvCaYjU8EssWkQsbk6R-53" edge="1">
          <mxGeometry relative="1" as="geometry">
            <mxPoint x="555" y="710" as="targetPoint" />
            <Array as="points" />
          </mxGeometry>
        </mxCell>
        <mxCell id="LNvCaYjU8EssWkQsbk6R-44" value="More action?&lt;br&gt;YES for edit or remove&lt;br&gt;No for Back to main page" style="html=1;" parent="1" vertex="1">
          <mxGeometry x="460" y="600" width="190" height="69" as="geometry" />
        </mxCell>
        <mxCell id="LNvCaYjU8EssWkQsbk6R-46" style="edgeStyle=orthogonalEdgeStyle;rounded=0;orthogonalLoop=1;jettySize=auto;html=1;entryX=0;entryY=0.5;entryDx=0;entryDy=0;" parent="1" source="LNvCaYjU8EssWkQsbk6R-45" target="LNvCaYjU8EssWkQsbk6R-2" edge="1">
          <mxGeometry relative="1" as="geometry" />
        </mxCell>
        <mxCell id="LNvCaYjU8EssWkQsbk6R-45" value="Main page" style="html=1;" parent="1" vertex="1">
          <mxGeometry x="190" y="530" width="130" height="50" as="geometry" />
        </mxCell>
        <mxCell id="LNvCaYjU8EssWkQsbk6R-58" style="edgeStyle=orthogonalEdgeStyle;rounded=0;orthogonalLoop=1;jettySize=auto;html=1;entryX=0.5;entryY=0;entryDx=0;entryDy=0;" parent="1" source="LNvCaYjU8EssWkQsbk6R-53" target="LNvCaYjU8EssWkQsbk6R-57" edge="1">
          <mxGeometry relative="1" as="geometry" />
        </mxCell>
        <mxCell id="LNvCaYjU8EssWkQsbk6R-62" style="edgeStyle=orthogonalEdgeStyle;rounded=0;orthogonalLoop=1;jettySize=auto;html=1;entryX=1;entryY=0.5;entryDx=0;entryDy=0;" parent="1" source="LNvCaYjU8EssWkQsbk6R-53" target="LNvCaYjU8EssWkQsbk6R-61" edge="1">
          <mxGeometry relative="1" as="geometry" />
        </mxCell>
        <mxCell id="LNvCaYjU8EssWkQsbk6R-53" value="Edit or Remove?" style="html=1;" parent="1" vertex="1">
          <mxGeometry x="510" y="720" width="100" height="50" as="geometry" />
        </mxCell>
        <mxCell id="LNvCaYjU8EssWkQsbk6R-68" style="edgeStyle=orthogonalEdgeStyle;rounded=0;orthogonalLoop=1;jettySize=auto;html=1;exitX=0;exitY=0.5;exitDx=0;exitDy=0;entryX=1;entryY=0.5;entryDx=0;entryDy=0;" parent="1" source="LNvCaYjU8EssWkQsbk6R-55" target="LNvCaYjU8EssWkQsbk6R-66" edge="1">
          <mxGeometry relative="1" as="geometry" />
        </mxCell>
        <mxCell id="LNvCaYjU8EssWkQsbk6R-71" style="edgeStyle=orthogonalEdgeStyle;rounded=0;orthogonalLoop=1;jettySize=auto;html=1;entryX=1;entryY=0.5;entryDx=0;entryDy=0;" parent="1" source="LNvCaYjU8EssWkQsbk6R-55" target="LNvCaYjU8EssWkQsbk6R-69" edge="1">
          <mxGeometry relative="1" as="geometry" />
        </mxCell>
        <mxCell id="LNvCaYjU8EssWkQsbk6R-72" style="edgeStyle=orthogonalEdgeStyle;rounded=0;orthogonalLoop=1;jettySize=auto;html=1;entryX=1;entryY=0.75;entryDx=0;entryDy=0;" parent="1" source="LNvCaYjU8EssWkQsbk6R-55" target="LNvCaYjU8EssWkQsbk6R-70" edge="1">
          <mxGeometry relative="1" as="geometry" />
        </mxCell>
        <mxCell id="LNvCaYjU8EssWkQsbk6R-55" value="Which one you want add?&lt;br&gt;Select between these&lt;br&gt;1. Name change&lt;br&gt;2. due date change&lt;br&gt;3. grade" style="html=1;" parent="1" vertex="1">
          <mxGeometry x="200" y="690" width="150" height="89" as="geometry" />
        </mxCell>
        <mxCell id="LNvCaYjU8EssWkQsbk6R-59" style="edgeStyle=orthogonalEdgeStyle;rounded=0;orthogonalLoop=1;jettySize=auto;html=1;" parent="1" source="LNvCaYjU8EssWkQsbk6R-57" edge="1">
          <mxGeometry relative="1" as="geometry">
            <mxPoint x="555" y="890" as="targetPoint" />
          </mxGeometry>
        </mxCell>
        <mxCell id="LNvCaYjU8EssWkQsbk6R-57" value="Remove" style="html=1;" parent="1" vertex="1">
          <mxGeometry x="500" y="810" width="110" height="50" as="geometry" />
        </mxCell>
        <mxCell id="LNvCaYjU8EssWkQsbk6R-60" value="Back to main page&lt;br&gt;" style="html=1;" parent="1" vertex="1">
          <mxGeometry x="500" y="890" width="110" height="50" as="geometry" />
        </mxCell>
        <mxCell id="LNvCaYjU8EssWkQsbk6R-65" style="edgeStyle=orthogonalEdgeStyle;rounded=0;orthogonalLoop=1;jettySize=auto;html=1;exitX=0;exitY=0.5;exitDx=0;exitDy=0;entryX=1.019;entryY=0.628;entryDx=0;entryDy=0;entryPerimeter=0;" parent="1" source="LNvCaYjU8EssWkQsbk6R-61" target="LNvCaYjU8EssWkQsbk6R-55" edge="1">
          <mxGeometry relative="1" as="geometry" />
        </mxCell>
        <mxCell id="LNvCaYjU8EssWkQsbk6R-61" value="Change" style="html=1;" parent="1" vertex="1">
          <mxGeometry x="370" y="720" width="110" height="50" as="geometry" />
        </mxCell>
        <mxCell id="LNvCaYjU8EssWkQsbk6R-74" style="edgeStyle=orthogonalEdgeStyle;rounded=0;orthogonalLoop=1;jettySize=auto;html=1;exitX=0.5;exitY=0;exitDx=0;exitDy=0;entryX=0;entryY=0.5;entryDx=0;entryDy=0;" parent="1" source="LNvCaYjU8EssWkQsbk6R-66" target="LNvCaYjU8EssWkQsbk6R-45" edge="1">
          <mxGeometry relative="1" as="geometry" />
        </mxCell>
        <mxCell id="LNvCaYjU8EssWkQsbk6R-66" value="Change the name" style="html=1;" parent="1" vertex="1">
          <mxGeometry x="50" y="709" width="110" height="50" as="geometry" />
        </mxCell>
        <mxCell id="LNvCaYjU8EssWkQsbk6R-75" style="edgeStyle=orthogonalEdgeStyle;rounded=0;orthogonalLoop=1;jettySize=auto;html=1;entryX=0.42;entryY=1.071;entryDx=0;entryDy=0;entryPerimeter=0;" parent="1" source="LNvCaYjU8EssWkQsbk6R-69" target="LNvCaYjU8EssWkQsbk6R-45" edge="1">
          <mxGeometry relative="1" as="geometry" />
        </mxCell>
        <mxCell id="LNvCaYjU8EssWkQsbk6R-69" value="Change due date" style="html=1;" parent="1" vertex="1">
          <mxGeometry x="50" y="800" width="110" height="50" as="geometry" />
        </mxCell>
        <mxCell id="LNvCaYjU8EssWkQsbk6R-73" style="edgeStyle=orthogonalEdgeStyle;rounded=0;orthogonalLoop=1;jettySize=auto;html=1;entryX=0;entryY=0.5;entryDx=0;entryDy=0;" parent="1" source="LNvCaYjU8EssWkQsbk6R-70" target="LNvCaYjU8EssWkQsbk6R-57" edge="1">
          <mxGeometry relative="1" as="geometry" />
        </mxCell>
        <mxCell id="LNvCaYjU8EssWkQsbk6R-70" value="Remove it if user&lt;br&gt;mark it as finish" style="html=1;" parent="1" vertex="1">
          <mxGeometry x="50" y="880" width="110" height="50" as="geometry" />
        </mxCell>
        <mxCell id="LNvCaYjU8EssWkQsbk6R-78" style="edgeStyle=orthogonalEdgeStyle;rounded=0;orthogonalLoop=1;jettySize=auto;html=1;entryX=0.5;entryY=0;entryDx=0;entryDy=0;" parent="1" source="LNvCaYjU8EssWkQsbk6R-77" target="LNvCaYjU8EssWkQsbk6R-2" edge="1">
          <mxGeometry relative="1" as="geometry" />
        </mxCell>
        <mxCell id="LNvCaYjU8EssWkQsbk6R-77" value="Main page" style="html=1;" parent="1" vertex="1">
          <mxGeometry x="259" y="260" width="110" height="50" as="geometry" />
        </mxCell>
        <mxCell id="LNvCaYjU8EssWkQsbk6R-81" style="edgeStyle=orthogonalEdgeStyle;rounded=0;orthogonalLoop=1;jettySize=auto;html=1;" parent="1" source="LNvCaYjU8EssWkQsbk6R-79" target="LNvCaYjU8EssWkQsbk6R-77" edge="1">
          <mxGeometry relative="1" as="geometry" />
        </mxCell>
        <mxCell id="LNvCaYjU8EssWkQsbk6R-79" value="NO" style="html=1;" parent="1" vertex="1">
          <mxGeometry x="399" y="259" width="110" height="50" as="geometry" />
        </mxCell>
        <mxCell id="LNvCaYjU8EssWkQsbk6R-85" style="edgeStyle=orthogonalEdgeStyle;rounded=0;orthogonalLoop=1;jettySize=auto;html=1;entryX=0.5;entryY=1;entryDx=0;entryDy=0;" parent="1" source="LNvCaYjU8EssWkQsbk6R-82" target="LNvCaYjU8EssWkQsbk6R-84" edge="1">
          <mxGeometry relative="1" as="geometry" />
        </mxCell>
        <mxCell id="LNvCaYjU8EssWkQsbk6R-82" value="YES" style="html=1;" parent="1" vertex="1">
          <mxGeometry x="585" y="170" width="110" height="50" as="geometry" />
        </mxCell>
        <mxCell id="LNvCaYjU8EssWkQsbk6R-89" style="edgeStyle=orthogonalEdgeStyle;rounded=0;orthogonalLoop=1;jettySize=auto;html=1;entryX=0.5;entryY=0;entryDx=0;entryDy=0;" parent="1" source="LNvCaYjU8EssWkQsbk6R-84" target="LNvCaYjU8EssWkQsbk6R-88" edge="1">
          <mxGeometry relative="1" as="geometry" />
        </mxCell>
        <mxCell id="LNvCaYjU8EssWkQsbk6R-92" style="edgeStyle=orthogonalEdgeStyle;rounded=0;orthogonalLoop=1;jettySize=auto;html=1;entryX=0;entryY=0.5;entryDx=0;entryDy=0;" parent="1" source="LNvCaYjU8EssWkQsbk6R-84" target="LNvCaYjU8EssWkQsbk6R-91" edge="1">
          <mxGeometry relative="1" as="geometry" />
        </mxCell>
        <mxCell id="LNvCaYjU8EssWkQsbk6R-84" value="Remove ?&amp;nbsp;&lt;br&gt;or Edit?" style="html=1;" parent="1" vertex="1">
          <mxGeometry x="585" y="90" width="110" height="50" as="geometry" />
        </mxCell>
        <mxCell id="LNvCaYjU8EssWkQsbk6R-90" style="edgeStyle=orthogonalEdgeStyle;rounded=0;orthogonalLoop=1;jettySize=auto;html=1;" parent="1" source="LNvCaYjU8EssWkQsbk6R-88" target="LNvCaYjU8EssWkQsbk6R-77" edge="1">
          <mxGeometry relative="1" as="geometry" />
        </mxCell>
        <mxCell id="LNvCaYjU8EssWkQsbk6R-88" value="Remove" style="html=1;" parent="1" vertex="1">
          <mxGeometry x="410" y="140" width="110" height="50" as="geometry" />
        </mxCell>
        <mxCell id="LNvCaYjU8EssWkQsbk6R-94" style="edgeStyle=orthogonalEdgeStyle;rounded=0;orthogonalLoop=1;jettySize=auto;html=1;entryX=0;entryY=0.5;entryDx=0;entryDy=0;" parent="1" source="LNvCaYjU8EssWkQsbk6R-91" target="LNvCaYjU8EssWkQsbk6R-95" edge="1">
          <mxGeometry relative="1" as="geometry">
            <mxPoint x="870" y="115" as="targetPoint" />
          </mxGeometry>
        </mxCell>
        <mxCell id="LNvCaYjU8EssWkQsbk6R-97" style="edgeStyle=orthogonalEdgeStyle;rounded=0;orthogonalLoop=1;jettySize=auto;html=1;entryX=0;entryY=0.5;entryDx=0;entryDy=0;" parent="1" source="LNvCaYjU8EssWkQsbk6R-91" target="LNvCaYjU8EssWkQsbk6R-96" edge="1">
          <mxGeometry relative="1" as="geometry" />
        </mxCell>
        <mxCell id="LNvCaYjU8EssWkQsbk6R-91" value="Which one you&lt;br&gt;want to change?&lt;br&gt;1. Date&lt;br&gt;2. Name" style="html=1;" parent="1" vertex="1">
          <mxGeometry x="720" y="50" width="110" height="130" as="geometry" />
        </mxCell>
        <mxCell id="LNvCaYjU8EssWkQsbk6R-101" style="edgeStyle=orthogonalEdgeStyle;rounded=0;orthogonalLoop=1;jettySize=auto;html=1;entryX=0.5;entryY=0;entryDx=0;entryDy=0;" parent="1" source="LNvCaYjU8EssWkQsbk6R-95" target="LNvCaYjU8EssWkQsbk6R-100" edge="1">
          <mxGeometry relative="1" as="geometry" />
        </mxCell>
        <mxCell id="LNvCaYjU8EssWkQsbk6R-95" value="1. Date" style="html=1;" parent="1" vertex="1">
          <mxGeometry x="800" y="200" width="110" height="50" as="geometry" />
        </mxCell>
        <mxCell id="LNvCaYjU8EssWkQsbk6R-104" style="edgeStyle=orthogonalEdgeStyle;rounded=0;orthogonalLoop=1;jettySize=auto;html=1;" parent="1" source="LNvCaYjU8EssWkQsbk6R-96" edge="1">
          <mxGeometry relative="1" as="geometry">
            <mxPoint x="805" y="380" as="targetPoint" />
          </mxGeometry>
        </mxCell>
        <mxCell id="LNvCaYjU8EssWkQsbk6R-96" value="2. Name&amp;nbsp;" style="html=1;" parent="1" vertex="1">
          <mxGeometry x="750" y="270" width="110" height="50" as="geometry" />
        </mxCell>
        <mxCell id="LNvCaYjU8EssWkQsbk6R-102" style="edgeStyle=orthogonalEdgeStyle;rounded=0;orthogonalLoop=1;jettySize=auto;html=1;entryX=0.5;entryY=0;entryDx=0;entryDy=0;" parent="1" source="LNvCaYjU8EssWkQsbk6R-100" target="LNvCaYjU8EssWkQsbk6R-103" edge="1">
          <mxGeometry relative="1" as="geometry">
            <mxPoint x="985" y="370" as="targetPoint" />
          </mxGeometry>
        </mxCell>
        <mxCell id="LNvCaYjU8EssWkQsbk6R-100" value="Change the name" style="html=1;" parent="1" vertex="1">
          <mxGeometry x="930" y="270" width="110" height="50" as="geometry" />
        </mxCell>
        <mxCell id="LNvCaYjU8EssWkQsbk6R-107" style="edgeStyle=orthogonalEdgeStyle;rounded=0;orthogonalLoop=1;jettySize=auto;html=1;entryX=0.75;entryY=1;entryDx=0;entryDy=0;" parent="1" source="LNvCaYjU8EssWkQsbk6R-103" target="LNvCaYjU8EssWkQsbk6R-2" edge="1">
          <mxGeometry relative="1" as="geometry" />
        </mxCell>
        <mxCell id="LNvCaYjU8EssWkQsbk6R-103" value="Back to main page" style="html=1;" parent="1" vertex="1">
          <mxGeometry x="860" y="460" width="110" height="50" as="geometry" />
        </mxCell>
        <mxCell id="LNvCaYjU8EssWkQsbk6R-106" style="edgeStyle=orthogonalEdgeStyle;rounded=0;orthogonalLoop=1;jettySize=auto;html=1;entryX=0.5;entryY=0;entryDx=0;entryDy=0;" parent="1" source="LNvCaYjU8EssWkQsbk6R-105" target="LNvCaYjU8EssWkQsbk6R-103" edge="1">
          <mxGeometry relative="1" as="geometry" />
        </mxCell>
        <mxCell id="LNvCaYjU8EssWkQsbk6R-105" value="Change the Name" style="html=1;" parent="1" vertex="1">
          <mxGeometry x="750" y="379" width="110" height="50" as="geometry" />
        </mxCell>
      </root>
    </mxGraphModel>
  </diagram>
</mxfile>
